<svg width="110" height="145" viewBox="0 0 110 145" fill="none" xmlns="http://www.w3.org/2000/svg">
<path d="M72.3886 26.7407H37.6063C31.6129 26.7407 26.7368 31.6168 26.7368 37.6102V107.175C26.7368 113.168 31.6129 118.044 37.6063 118.044H72.3886C78.382 118.044 83.258 113.168 83.258 107.175V37.6102C83.258 31.6168 78.382 26.7407 72.3886 26.7407ZM78.9102 107.175C78.9102 110.77 75.9842 113.696 72.3886 113.696H37.6063C34.0107 113.696 31.0846 110.77 31.0846 107.175V37.6102C31.0846 34.0146 34.0107 31.0885 37.6063 31.0885H72.3886C75.9842 31.0885 78.9102 34.0146 78.9102 37.6102V107.175Z" fill="black"/>
<path d="M54.9978 22.3911C59.7934 22.3911 63.6934 18.4912 63.6934 13.6956C63.6934 8.89996 59.7934 5 54.9978 5C50.2022 5 46.3022 8.89996 46.3022 13.6956C46.3022 18.4912 50.2022 22.3911 54.9978 22.3911ZM54.9978 9.34778C57.3956 9.34778 59.3456 11.2999 59.3456 13.6956C59.3456 16.0912 57.3956 18.0433 54.9978 18.0433C52.6 18.0433 50.65 16.0912 50.65 13.6956C50.65 11.2999 52.6 9.34778 54.9978 9.34778Z" fill="black"/>
<path d="M96.3044 50.6499C101.1 50.6499 105 46.75 105 41.9543C105 37.1587 101.1 33.2588 96.3044 33.2588C91.5088 33.2588 87.6089 37.1587 87.6089 41.9543C87.6089 46.75 91.5088 50.6499 96.3044 50.6499ZM96.3044 37.6066C98.7022 37.6066 100.652 39.5565 100.652 41.9543C100.652 44.3522 98.7022 46.3021 96.3044 46.3021C93.9066 46.3021 91.9567 44.3522 91.9567 41.9543C91.9567 39.5565 93.9066 37.6066 96.3044 37.6066Z" fill="black"/>
<path d="M96.3044 63.7012C91.5088 63.7012 87.6089 67.6011 87.6089 72.3967C87.6089 77.1923 91.5088 81.0923 96.3044 81.0923C101.1 81.0923 105 77.1923 105 72.3967C105 67.6011 101.1 63.7012 96.3044 63.7012ZM96.3044 76.7445C93.9066 76.7445 91.9567 74.7945 91.9567 72.3967C91.9567 69.9989 93.9066 68.049 96.3044 68.049C98.7022 68.049 100.652 69.9989 100.652 72.3967C100.652 74.7945 98.7022 76.7445 96.3044 76.7445Z" fill="black"/>
<path d="M96.3044 94.1235C91.5088 94.1235 87.6089 98.0235 87.6089 102.819C87.6089 107.615 91.5088 111.515 96.3044 111.515C101.1 111.515 105 107.615 105 102.819C105 98.0235 101.1 94.1235 96.3044 94.1235ZM96.3044 107.167C93.9066 107.167 91.9567 105.217 91.9567 102.819C91.9567 100.421 93.9066 98.4713 96.3044 98.4713C98.7022 98.4713 100.652 100.421 100.652 102.819C100.652 105.217 98.7022 107.167 96.3044 107.167Z" fill="black"/>
<path d="M13.6956 33.2588C8.89996 33.2588 5 37.1587 5 41.9543C5 46.75 8.89996 50.6499 13.6956 50.6499C18.4912 50.6499 22.3911 46.75 22.3911 41.9543C22.3911 37.1587 18.4912 33.2588 13.6956 33.2588ZM13.6956 46.3021C11.2978 46.3021 9.34778 44.3522 9.34778 41.9543C9.34778 39.5565 11.2978 37.6066 13.6956 37.6066C16.0934 37.6066 18.0433 39.5565 18.0433 41.9543C18.0433 44.3522 16.0934 46.3021 13.6956 46.3021Z" fill="black"/>
<path d="M13.6956 63.7012C8.89996 63.7012 5 67.6011 5 72.3967C5 77.1923 8.89996 81.0923 13.6956 81.0923C18.4912 81.0923 22.3911 77.1923 22.3911 72.3967C22.3911 67.6011 18.4912 63.7012 13.6956 63.7012ZM13.6956 76.7445C11.2978 76.7445 9.34778 74.7945 9.34778 72.3967C9.34778 69.9989 11.2978 68.049 13.6956 68.049C16.0934 68.049 18.0433 69.9989 18.0433 72.3967C18.0433 74.7945 16.0934 76.7445 13.6956 76.7445Z" fill="black"/>
<path d="M13.6956 94.1235C8.89996 94.1235 5 98.0235 5 102.819C5 107.615 8.89996 111.515 13.6956 111.515C18.4912 111.515 22.3911 107.615 22.3911 102.819C22.3911 98.0235 18.4912 94.1235 13.6956 94.1235ZM13.6956 107.167C11.2978 107.167 9.34778 105.217 9.34778 102.819C9.34778 100.421 11.2978 98.4713 13.6956 98.4713C16.0934 98.4713 18.0433 100.421 18.0433 102.819C18.0433 105.217 16.0934 107.167 13.6956 107.167Z" fill="black"/>
<path d="M54.9978 122.394C50.2022 122.394 46.3022 126.294 46.3022 131.089C46.3022 135.885 50.2022 139.785 54.9978 139.785C59.7934 139.785 63.6934 135.885 63.6934 131.089C63.6934 126.294 59.7934 122.394 54.9978 122.394ZM54.9978 135.437C52.6 135.437 50.65 133.487 50.65 131.089C50.65 128.691 52.6 126.741 54.9978 126.741C57.3956 126.741 59.3456 128.691 59.3456 131.089C59.3456 133.487 57.3956 135.437 54.9978 135.437Z" fill="black"/>
<path d="M72.3938 57.1753H61.5243V61.5231H70.2199V81.0881H39.7854V61.5231H48.481V57.1753H37.6115C36.4115 57.1753 35.4376 58.147 35.4376 59.3492V83.262C35.4376 84.4642 36.4115 85.4359 37.6115 85.4359H72.3938C73.5938 85.4359 74.5677 84.4642 74.5677 83.262V59.3492C74.5677 58.147 73.5938 57.1753 72.3938 57.1753Z" fill="black"/>
<path d="M46.9385 69.5747L53.4602 76.0964C53.8841 76.5203 54.4406 76.7333 54.9971 76.7333C55.5536 76.7333 56.1101 76.5203 56.534 76.0964L63.0557 69.5747L59.9818 66.5008L57.171 69.3116V46.2988H52.8232V69.3116L50.0124 66.5008L46.9385 69.5747Z" fill="black"/>
</svg>
