<svg width="39" height="53" viewBox="0 0 39 53" fill="none" xmlns="http://www.w3.org/2000/svg">
<path d="M26.2815 8.479H12.7164C10.379 8.479 8.47729 10.3807 8.47729 12.7181V39.8483C8.47729 42.1858 10.379 44.0874 12.7164 44.0874H26.2815C28.6189 44.0874 30.5206 42.1858 30.5206 39.8483V12.7181C30.5206 10.3807 28.6189 8.479 26.2815 8.479ZM28.825 39.8483C28.825 41.2506 27.6838 42.3918 26.2815 42.3918H12.7164C11.3141 42.3918 10.1729 41.2506 10.1729 39.8483V12.7181C10.1729 11.3158 11.3141 10.1746 12.7164 10.1746H26.2815C27.6838 10.1746 28.825 11.3158 28.825 12.7181V39.8483Z" fill="#F2F3FF"/>
<path d="M19.4992 6.78255C21.3695 6.78255 22.8905 5.26156 22.8905 3.39128C22.8905 1.52099 21.3695 0 19.4992 0C17.6289 0 16.1079 1.52099 16.1079 3.39128C16.1079 5.26156 17.6289 6.78255 19.4992 6.78255ZM19.4992 1.69564C20.4343 1.69564 21.1948 2.45698 21.1948 3.39128C21.1948 4.32557 20.4343 5.08691 19.4992 5.08691C18.564 5.08691 17.8035 4.32557 17.8035 3.39128C17.8035 2.45698 18.564 1.69564 19.4992 1.69564Z" fill="#F2F3FF"/>
<path d="M35.6088 17.8035C37.4791 17.8035 39.0001 16.2826 39.0001 14.4123C39.0001 12.542 37.4791 11.021 35.6088 11.021C33.7385 11.021 32.2175 12.542 32.2175 14.4123C32.2175 16.2826 33.7385 17.8035 35.6088 17.8035ZM35.6088 12.7166C36.5439 12.7166 37.3044 13.4771 37.3044 14.4123C37.3044 15.3474 36.5439 16.1079 35.6088 16.1079C34.6737 16.1079 33.9132 15.3474 33.9132 14.4123C33.9132 13.4771 34.6737 12.7166 35.6088 12.7166Z" fill="#F2F3FF"/>
<path d="M35.6088 22.8936C33.7385 22.8936 32.2175 24.4145 32.2175 26.2848C32.2175 28.1551 33.7385 29.6761 35.6088 29.6761C37.4791 29.6761 39.0001 28.1551 39.0001 26.2848C39.0001 24.4145 37.4791 22.8936 35.6088 22.8936ZM35.6088 27.9805C34.6737 27.9805 33.9132 27.22 33.9132 26.2848C33.9132 25.3497 34.6737 24.5892 35.6088 24.5892C36.5439 24.5892 37.3044 25.3497 37.3044 26.2848C37.3044 27.22 36.5439 27.9805 35.6088 27.9805Z" fill="#F2F3FF"/>
<path d="M35.6088 34.7583C33.7385 34.7583 32.2175 36.2793 32.2175 38.1496C32.2175 40.0199 33.7385 41.5409 35.6088 41.5409C37.4791 41.5409 39.0001 40.0199 39.0001 38.1496C39.0001 36.2793 37.4791 34.7583 35.6088 34.7583ZM35.6088 39.8452C34.6737 39.8452 33.9132 39.0847 33.9132 38.1496C33.9132 37.2144 34.6737 36.4539 35.6088 36.4539C36.5439 36.4539 37.3044 37.2144 37.3044 38.1496C37.3044 39.0847 36.5439 39.8452 35.6088 39.8452Z" fill="#F2F3FF"/>
<path d="M3.39128 11.021C1.52099 11.021 0 12.542 0 14.4123C0 16.2826 1.52099 17.8035 3.39128 17.8035C5.26156 17.8035 6.78255 16.2826 6.78255 14.4123C6.78255 12.542 5.26156 11.021 3.39128 11.021ZM3.39128 16.1079C2.45613 16.1079 1.69564 15.3474 1.69564 14.4123C1.69564 13.4771 2.45613 12.7166 3.39128 12.7166C4.32642 12.7166 5.08691 13.4771 5.08691 14.4123C5.08691 15.3474 4.32642 16.1079 3.39128 16.1079Z" fill="#F2F3FF"/>
<path d="M3.39128 22.8936C1.52099 22.8936 0 24.4145 0 26.2848C0 28.1551 1.52099 29.6761 3.39128 29.6761C5.26156 29.6761 6.78255 28.1551 6.78255 26.2848C6.78255 24.4145 5.26156 22.8936 3.39128 22.8936ZM3.39128 27.9805C2.45613 27.9805 1.69564 27.22 1.69564 26.2848C1.69564 25.3497 2.45613 24.5892 3.39128 24.5892C4.32642 24.5892 5.08691 25.3497 5.08691 26.2848C5.08691 27.22 4.32642 27.9805 3.39128 27.9805Z" fill="#F2F3FF"/>
<path d="M3.39128 34.7583C1.52099 34.7583 0 36.2793 0 38.1496C0 40.0199 1.52099 41.5409 3.39128 41.5409C5.26156 41.5409 6.78255 40.0199 6.78255 38.1496C6.78255 36.2793 5.26156 34.7583 3.39128 34.7583ZM3.39128 39.8452C2.45613 39.8452 1.69564 39.0847 1.69564 38.1496C1.69564 37.2144 2.45613 36.4539 3.39128 36.4539C4.32642 36.4539 5.08691 37.2144 5.08691 38.1496C5.08691 39.0847 4.32642 39.8452 3.39128 39.8452Z" fill="#F2F3FF"/>
<path d="M19.4992 45.7837C17.6289 45.7837 16.1079 47.3047 16.1079 49.175C16.1079 51.0453 17.6289 52.5662 19.4992 52.5662C21.3695 52.5662 22.8905 51.0453 22.8905 49.175C22.8905 47.3047 21.3695 45.7837 19.4992 45.7837ZM19.4992 50.8706C18.564 50.8706 17.8035 50.1101 17.8035 49.175C17.8035 48.2398 18.564 47.4793 19.4992 47.4793C20.4343 47.4793 21.1948 48.2398 21.1948 49.175C21.1948 50.1101 20.4343 50.8706 19.4992 50.8706Z" fill="#F2F3FF"/>
<path d="M26.2837 20.3484H22.0446V22.044H25.4358V29.6744H13.5664V22.044H16.9576V20.3484H12.7185C12.2506 20.3484 11.8707 20.7274 11.8707 21.1962V30.5222C11.8707 30.9911 12.2506 31.37 12.7185 31.37H26.2837C26.7517 31.37 27.1315 30.9911 27.1315 30.5222V21.1962C27.1315 20.7274 26.7517 20.3484 26.2837 20.3484Z" fill="#F2F3FF"/>
<path d="M16.3561 25.184L18.8995 27.7275C19.0649 27.8928 19.2819 27.9759 19.4989 27.9759C19.716 27.9759 19.933 27.8928 20.0984 27.7275L22.6418 25.184L21.443 23.9852L20.3468 25.0815V16.1064H18.6511V25.0815L17.5549 23.9852L16.3561 25.184Z" fill="#F2F3FF"/>
</svg>
