<svg width="320" height="100" viewBox="0 0 320 100" fill="none" xmlns="http://www.w3.org/2000/svg">
<g clip-path="url(#clip0)">
<path d="M69.4595 48.6487L100 48.6486V50C100 77.5714 77.57 100 50 100C22.43 100 0 77.5714 0 50C0 22.4286 22.43 0 50 0C60.9181 0 71.2914 3.45547 80 9.99595L78.3764 12.1571C70.1417 5.97233 60.3293 2.70304 50.0026 2.70304C34.224 2.70304 20.2336 10.478 11.636 22.3888C17.5457 29.9333 20.7957 39.3088 20.7957 48.9221C20.7957 58.9804 17.2526 68.7578 10.8233 76.4697C19.336 89.0266 33.719 97.2954 49.9995 97.2954C75.6281 97.2954 96.559 76.8083 97.2757 51.3502H69.4567V48.6476L69.4595 48.6487ZM2.70262 50.0011C2.70262 58.7787 5.11524 67.0011 9.3 74.0559C14.9721 66.9378 18.0931 58.0573 18.0931 48.9249C18.0931 40.2111 15.2181 31.7206 10.0221 24.7773C5.39429 32.0842 2.70262 40.733 2.70262 50.0035V50.0011Z" fill="#39364F" stroke="black"/>
<path d="M138.989 50.2301C139.248 50.2301 139.421 50.4033 139.421 50.663V51.3845C139.421 56.7809 135.857 60.8066 130.115 60.8066C124.285 60.8066 120 56.1604 120 50.3744C120 44.6173 124.372 40 130.1 40C132.842 40 134.963 41.01 136.853 42.6549C137.055 42.8281 137.098 43.0589 136.882 43.2609L136.261 43.8958C136.045 44.0978 135.857 44.0545 135.655 43.8814C134.097 42.5395 132.366 41.7459 130.115 41.7459C125.526 41.7459 121.818 45.4542 121.818 50.3744C121.818 55.3236 125.483 59.0462 130.129 59.0462C134.4 59.0462 137.618 56.2182 137.733 51.976H130.475C130.216 51.976 130.043 51.8029 130.043 51.5432V50.663C130.043 50.4033 130.216 50.2301 130.475 50.2301H138.989V50.2301ZM155.977 60.8066C150.263 60.8066 145.66 56.1893 145.66 50.4177C145.66 44.6173 150.263 40 155.977 40C161.662 40 166.265 44.6173 166.265 50.4177C166.265 56.1893 161.662 60.8066 155.977 60.8066ZM155.977 59.1472C160.753 59.1472 164.533 55.2803 164.533 50.4177C164.533 45.5263 160.753 41.6593 155.977 41.6593C151.172 41.6593 147.392 45.5263 147.392 50.4177C147.392 55.2803 151.172 59.1472 155.977 59.1472V59.1472ZM182.82 60.8066C177.106 60.8066 172.503 56.1893 172.503 50.4177C172.503 44.6173 177.106 40 182.82 40C188.505 40 193.108 44.6173 193.108 50.4177C193.108 56.1893 188.505 60.8066 182.82 60.8066ZM182.82 59.1472C187.596 59.1472 191.377 55.2803 191.377 50.4177C191.377 45.5263 187.596 41.6593 182.82 41.6593C178.015 41.6593 174.235 45.5263 174.235 50.4177C174.235 55.2803 178.015 59.1472 182.82 59.1472ZM204.584 40.2309C211.626 40.2309 215.146 44.5884 215.146 50.3311C215.146 56.0594 211.626 60.4314 204.584 60.4314H200.357C200.097 60.4314 199.924 60.2583 199.924 59.9986V40.6637C199.924 40.404 200.097 40.2309 200.357 40.2309H204.584V40.2309ZM204.584 58.7288C210.428 58.7288 213.314 55.4967 213.314 50.3311C213.314 45.1511 210.428 41.9335 204.584 41.9335H201.728V58.7288H204.584V58.7288ZM229.076 40.2309C233.91 40.2309 235.886 42.4818 235.886 46.3487C235.886 50.2301 233.91 52.4811 229.076 52.4811H223.261V59.9986C223.261 60.2583 223.088 60.4314 222.828 60.4314H221.89C221.63 60.4314 221.457 60.2583 221.457 59.9986V40.6637C221.457 40.404 221.63 40.2309 221.89 40.2309H229.076V40.2309ZM229.177 50.7784C232.048 50.7784 234.112 49.9416 234.112 46.3487C234.112 42.7559 232.048 41.9335 229.177 41.9335H223.261V50.7784H229.177ZM252.095 52.2791L256.136 59.9264C256.294 60.2294 256.15 60.4314 255.818 60.4314H254.75C254.52 60.4314 254.361 60.3304 254.245 60.114L250.234 52.4811H249.816H244.001V59.9986C244.001 60.2583 243.828 60.4314 243.568 60.4314H242.63C242.37 60.4314 242.197 60.2583 242.197 59.9986V40.6637C242.197 40.404 242.37 40.2309 242.63 40.2309H249.816C254.649 40.2309 256.626 42.4818 256.626 46.3487C256.626 49.552 255.284 51.6442 252.095 52.2791V52.2791ZM244.001 50.7784H249.917C252.788 50.7784 254.851 49.9416 254.851 46.3487C254.851 42.7559 252.788 41.9335 249.917 41.9335H244.001V50.7784ZM276.428 41.9335H270.657V58.7288H276.428C276.688 58.7288 276.861 58.902 276.861 59.1617V59.9986C276.861 60.2583 276.688 60.4314 276.428 60.4314H263.081C262.822 60.4314 262.648 60.2583 262.648 59.9986V59.1617C262.648 58.902 262.822 58.7288 263.081 58.7288H268.853V41.9335H263.081C262.822 41.9335 262.648 41.7603 262.648 41.5006V40.6637C262.648 40.404 262.822 40.2309 263.081 40.2309H276.428C276.688 40.2309 276.861 40.404 276.861 40.6637V41.5006C276.861 41.7603 276.688 41.9335 276.428 41.9335ZM299.578 56.9108L300.198 57.5312C300.414 57.7332 300.371 57.9641 300.169 58.1372C298.279 59.8831 296.158 60.8066 293.416 60.8066C287.688 60.8066 283.316 56.1749 283.316 50.4177C283.316 44.6173 287.688 40 293.416 40C296.158 40 298.279 41.01 300.169 42.6549C300.371 42.8281 300.414 43.0589 300.198 43.2609L299.578 43.8958C299.361 44.0978 299.174 44.0545 298.972 43.8814C297.413 42.5395 295.682 41.7459 293.431 41.7459C288.842 41.7459 285.134 45.4542 285.134 50.4177C285.134 55.338 288.842 59.0462 293.431 59.0462C295.682 59.0462 297.413 58.2671 298.972 56.9108C299.174 56.7376 299.361 56.7087 299.578 56.9108V56.9108ZM319.567 58.7288C319.827 58.7288 320 58.902 320 59.1617V59.9986C320 60.2583 319.827 60.4314 319.567 60.4314H307.375C307.115 60.4314 306.942 60.2583 306.942 59.9986V40.6637C306.942 40.404 307.115 40.2309 307.375 40.2309H319.538C319.798 40.2309 319.971 40.404 319.971 40.6637V41.5006C319.971 41.7603 319.798 41.9335 319.538 41.9335H308.745V48.8738H318.745C319.004 48.8738 319.178 49.047 319.178 49.3067V50.1436C319.178 50.4033 319.004 50.5764 318.745 50.5764H308.745V58.7288H319.567V58.7288Z" fill="#39364F" stroke="black"/>
</g>
<defs>
<clipPath id="clip0">
<rect width="320" height="100" fill="white"/>
</clipPath>
</defs>
</svg>
