<svg width="140" height="66" viewBox="0 0 140 66" fill="none" xmlns="http://www.w3.org/2000/svg">
<path d="M55.6958 39.2931V28.9479H63.2621V31.0622H58.0367V33.0104H62.8695V35.0644H58.0367V37.1787H63.2772V39.2931H55.6958V39.2931ZM70.2244 39.2931H67.3549L63.7756 28.9479H66.2977L68.85 36.771L71.4024 28.9479H73.8188L70.2244 39.2931ZM74.5437 39.2931V28.9479H82.11V31.0622H76.8846V33.0104H81.7173V35.0644H76.8846V37.1787H82.1251V39.2931H74.5437V39.2931ZM89.5857 39.2931L85.4174 32.7386V39.2931H83.1672V28.9479H85.7195L89.8878 35.5174V28.9479H92.138V39.2931H89.5857ZM98.4207 39.2931H96.0798V31.0924H92.9989V28.9479H101.502V31.0924H98.4207V39.2931ZM108.177 35.4419L106.833 31.3945L105.489 35.4419H108.177V35.4419ZM109.461 39.2931L108.872 37.511H104.809L104.22 39.2931H101.819L105.474 28.9479H108.343L111.983 39.2931H109.461V39.2931ZM116.951 36.4085H115.048V39.2931H112.708V28.9479H117.163C119.519 28.9479 120.848 30.594 120.848 32.6027C120.848 34.717 119.383 36.4085 116.951 36.4085V36.4085ZM116.815 31.0924H115.048V34.2639H116.891C117.888 34.2639 118.492 33.5994 118.492 32.6631C118.492 31.7267 117.903 31.0924 116.815 31.0924V31.0924ZM126.103 36.4085H124.201V39.2931H121.86V28.9479H126.315C128.671 28.9479 130 30.594 130 32.6027C130 34.717 128.535 36.4085 126.103 36.4085V36.4085ZM125.968 31.0924H124.201V34.2639H126.043C127.04 34.2639 127.644 33.5994 127.644 32.6631C127.644 31.7267 127.055 31.0924 125.968 31.0924V31.0924Z" fill="white"/>
<path d="M47.1367 23.2477C47.1307 23.2006 47.1246 23.1555 47.1091 23.1111C47.095 23.0701 47.0755 23.0344 47.0539 22.9981C47.0324 22.9604 47.0116 22.9254 46.9833 22.8924C46.9523 22.8568 46.9167 22.8292 46.8797 22.8009C46.8575 22.7841 46.842 22.7599 46.8171 22.7458L43.0517 20.5717C42.73 20.3853 42.3183 20.4957 42.1325 20.818C41.9468 21.1396 42.0572 21.5514 42.3788 21.7371L45.8078 23.7167V43.9695C45.7957 44.2273 45.9336 44.4803 46.1799 44.6027C46.2761 44.6505 46.3784 44.6734 46.4793 44.6734C46.7263 44.6734 46.9645 44.5368 47.0822 44.3006C47.1286 44.2071 47.1529 44.1041 47.1529 43.9998V23.3285C47.1529 23.2995 47.1407 23.2753 47.1367 23.2477Z" fill="white"/>
<path d="M41.146 10.0213L31.1451 12.6307C30.9123 12.6912 30.7306 12.8716 30.6667 13.1037L28.576 20.7112L26.4847 13.1037C26.4208 12.8722 26.2385 12.6919 26.0057 12.6307L16.0047 10.0213C15.7726 9.96206 15.525 10.0287 15.3561 10.1996C15.1872 10.3705 15.1226 10.6188 15.1865 10.8509L17.9258 20.8162C17.9897 21.0477 18.1721 21.228 18.4042 21.2892L26.834 23.4909L19.6228 27.7172L12.0186 23.3267L14.7747 21.7353C15.097 21.5496 15.2067 21.1378 15.021 20.8162C14.8353 20.4939 14.4228 20.3835 14.1018 20.5699L10.3364 22.744C10.3243 22.7514 10.3176 22.7635 10.3062 22.7709C10.288 22.783 10.2698 22.7924 10.2523 22.8066C10.2288 22.8254 10.212 22.8503 10.1911 22.8725C10.1642 22.9008 10.1379 22.9284 10.1171 22.96C10.109 22.9721 10.0976 22.9781 10.0902 22.9903C10.0868 22.997 10.0868 23.0044 10.0834 23.0104C10.0801 23.0165 10.074 23.0205 10.0707 23.0266C10.0619 23.0434 10.0646 23.0636 10.0579 23.0818C10.0424 23.1208 10.0283 23.1585 10.0202 23.1995C10.0141 23.2298 10.0101 23.2594 10.0087 23.2904C10.0081 23.3031 10 23.3146 10 23.328V44.0008C10 44.241 10.1278 44.4637 10.3364 44.5835L28.2396 54.9208C28.2578 54.9316 28.2773 54.935 28.2961 54.9437C28.3103 54.9504 28.3237 54.9558 28.3378 54.9612C28.4159 54.9908 28.4953 55.0103 28.5754 55.0103C28.6575 55.0103 28.7369 54.9901 28.8136 54.9612C28.8284 54.9558 28.8432 54.9498 28.858 54.9437C28.928 54.9107 28.9952 54.8704 29.0518 54.8132C29.0531 54.8118 29.0545 54.8091 29.0558 54.8078C29.0948 54.7681 29.1298 54.7244 29.1588 54.6746C29.1662 54.6618 29.1655 54.6483 29.1722 54.6355C29.1924 54.5945 29.2038 54.5514 29.2153 54.507C29.2267 54.4639 29.2382 54.4222 29.2408 54.3792C29.2422 54.3644 29.2496 54.3523 29.2496 54.3375V33.6641C29.2496 33.6358 29.2368 33.6116 29.2334 33.584C29.2274 33.5369 29.2213 33.4918 29.2059 33.4467C29.1917 33.4057 29.1722 33.3707 29.1507 33.3337C29.1298 33.296 29.1083 33.261 29.0794 33.2274C29.0491 33.1924 29.0134 33.1648 28.9771 33.1365C28.9529 33.119 28.9374 33.0955 28.9125 33.0814L20.9638 28.4917L28.5754 24.0305L36.8544 28.8826V49.1691C36.8544 49.5412 37.1552 49.842 37.5273 49.842C37.8994 49.842 38.2002 49.5412 38.2002 49.1691V28.4964C38.2002 28.4681 38.1867 28.4432 38.184 28.4156C38.1786 28.3699 38.1719 28.3261 38.1571 28.2817C38.143 28.24 38.1235 28.2044 38.1019 28.1674C38.0811 28.1297 38.0602 28.0954 38.0319 28.0624C38.001 28.0267 37.966 27.9991 37.9297 27.9709C37.9075 27.9541 37.8927 27.9305 37.8684 27.9164L30.3174 23.4909L38.7472 21.2892C38.98 21.2287 39.1617 21.0483 39.2256 20.8162L41.9649 10.8509C42.0288 10.6188 41.9642 10.3712 41.7953 10.1996C41.6264 10.028 41.3802 9.96206 41.146 10.0213ZM27.9032 53.1727L20.2963 48.7809V29.6605L27.9032 34.0523V53.1727ZM11.3451 24.4921L18.9512 28.884V48.0037L11.3451 43.6118V24.4921ZM16.7927 11.618L25.2904 13.8351L27.6179 22.3046L19.1201 20.0848L16.7927 11.618ZM38.0306 20.0848L29.5329 22.3046L31.861 13.8351L40.3587 11.618L38.0306 20.0848Z" fill="white"/>
</svg>
