<svg width="140" height="120" viewBox="0 0 140 120" fill="none" xmlns="http://www.w3.org/2000/svg">
<path d="M99.9739 31.3941C99.9641 31.318 99.9543 31.2452 99.9293 31.1735C99.9065 31.1072 99.875 31.0496 99.8402 30.991C99.8054 30.9301 99.7718 30.8736 99.7261 30.8203C99.6761 30.7628 99.6185 30.7182 99.5588 30.6726C99.5229 30.6454 99.4979 30.6063 99.4577 30.5834L93.3766 27.0724C92.8572 26.7714 92.1921 26.9496 91.8922 27.4701C91.5923 27.9895 91.7705 28.6546 92.2899 28.9545L97.8277 32.1515V64.8595C97.8081 65.2757 98.0309 65.6843 98.4286 65.8821C98.584 65.9593 98.7492 65.9962 98.9122 65.9962C99.311 65.9962 99.6957 65.7756 99.8859 65.3942C99.9608 65.2431 100 65.0769 100 64.9084V31.5245C100 31.4778 99.9804 31.4387 99.9739 31.3941Z" fill="#4C5D6D"/>
<path d="M90.3003 10.0344L74.149 14.2485C73.773 14.3463 73.4796 14.6375 73.3763 15.0124L70 27.2985L66.6226 15.0124C66.5194 14.6386 66.2249 14.3474 65.8489 14.2485L49.6975 10.0344C49.3226 9.93873 48.9227 10.0463 48.65 10.3223C48.3772 10.5983 48.2729 10.9993 48.3761 11.3742L52.8 27.468C52.9033 27.8418 53.1977 28.133 53.5726 28.2319L67.1866 31.7875L55.5406 38.613L43.26 31.5224L47.7111 28.9524C48.2316 28.6525 48.4087 27.9874 48.1088 27.468C47.8089 26.9475 47.1428 26.7693 46.6244 27.0703L40.5433 30.5813C40.5238 30.5933 40.5129 30.6128 40.4944 30.6248C40.4651 30.6444 40.4358 30.6596 40.4075 30.6824C40.3695 30.7128 40.3423 30.753 40.3086 30.7889C40.2652 30.8345 40.2228 30.8791 40.1891 30.9302C40.176 30.9497 40.1576 30.9595 40.1456 30.9791C40.1402 30.9899 40.1402 31.0019 40.1347 31.0117C40.1293 31.0214 40.1195 31.028 40.1141 31.0377C40.1 31.0649 40.1043 31.0975 40.0935 31.1268C40.0685 31.1899 40.0456 31.2507 40.0326 31.317C40.0228 31.3659 40.0163 31.4137 40.0141 31.4637C40.013 31.4844 40 31.5028 40 31.5246V64.9107C40 65.2986 40.2065 65.6583 40.5433 65.8517L69.4567 82.5464C69.486 82.5638 69.5175 82.5692 69.5479 82.5834C69.5708 82.5942 69.5925 82.6029 69.6153 82.6116C69.7414 82.6594 69.8696 82.6909 69.9989 82.6909C70.1315 82.6909 70.2597 82.6583 70.3836 82.6116C70.4075 82.6029 70.4314 82.5931 70.4553 82.5834C70.5683 82.5301 70.677 82.4649 70.7683 82.3725C70.7705 82.3704 70.7726 82.366 70.7748 82.3638C70.8378 82.2997 70.8943 82.2291 70.9411 82.1487C70.953 82.128 70.9519 82.1063 70.9628 82.0857C70.9954 82.0194 71.0139 81.9498 71.0324 81.8781C71.0508 81.8086 71.0693 81.7412 71.0736 81.6716C71.0758 81.6477 71.0878 81.6282 71.0878 81.6043V48.2171C71.0878 48.1714 71.0671 48.1323 71.0617 48.0878C71.0519 48.0117 71.0421 47.9389 71.0171 47.8661C70.9943 47.7998 70.9628 47.7433 70.928 47.6835C70.8943 47.6227 70.8596 47.5662 70.8128 47.5118C70.7639 47.4553 70.7063 47.4108 70.6477 47.3651C70.6085 47.3369 70.5836 47.2988 70.5433 47.276L57.7064 39.8638L69.9989 32.6591L83.3694 40.4951V73.2575C83.3694 73.8584 83.8552 74.3442 84.4561 74.3442C85.0571 74.3442 85.5428 73.8584 85.5428 73.2575V39.8714C85.5428 39.8257 85.5211 39.7855 85.5167 39.741C85.508 39.6671 85.4972 39.5964 85.4733 39.5247C85.4504 39.4573 85.4189 39.3997 85.3841 39.34C85.3505 39.2791 85.3168 39.2237 85.2711 39.1705C85.2211 39.1129 85.1646 39.0683 85.106 39.0227C85.0701 38.9955 85.0462 38.9575 85.0071 38.9346L72.8123 31.7875L86.4263 28.2319C86.8023 28.1341 87.0957 27.8429 87.1989 27.468L91.6228 11.3742C91.726 10.9993 91.6217 10.5994 91.3489 10.3223C91.0762 10.0452 90.6785 9.93873 90.3003 10.0344ZM68.9133 79.7232L56.6284 72.6305V41.7513L68.9133 48.8441V79.7232ZM42.1723 33.4045L54.4561 40.4973V71.3753L42.1723 64.2826V33.4045ZM50.97 12.6131L64.6937 16.1937L68.4526 29.8717L54.7289 26.2868L50.97 12.6131ZM85.269 26.2868L71.5453 29.8717L75.3052 16.1937L89.0289 12.6131L85.269 26.2868Z" fill="#4C5D6D"/>
<path d="M10 109.398V92.6909H22.2195V96.1056H13.7805V99.2519H21.5854V102.569H13.7805V105.984H22.2439V109.398H10V109.398ZM33.4634 109.398H28.8293L23.0488 92.6909H27.1219L31.2439 105.325L35.3659 92.6909H39.2683L33.4634 109.398ZM40.439 109.398V92.6909H52.6585V96.1056H44.2195V99.2519H52.0244V102.569H44.2195V105.984H52.6829V109.398H40.439V109.398ZM64.7317 109.398L58 98.8129V109.398H54.3659V92.6909H58.4878L65.2195 103.301V92.6909H68.8537V109.398H64.7317ZM79 109.398H75.2195V96.1543H70.2439V92.6909H83.9756V96.1543H79V109.398ZM94.7561 103.179L92.5854 96.6421L90.4146 103.179H94.7561V103.179ZM96.8293 109.398L95.878 106.52H89.3171L88.3659 109.398H84.4878L90.3902 92.6909H95.0244L100.902 109.398H96.8293V109.398ZM108.927 104.74H105.854V109.398H102.073V92.6909H109.268C113.073 92.6909 115.22 95.3495 115.22 98.5934C115.22 102.008 112.854 104.74 108.927 104.74V104.74ZM108.707 96.1543H105.854V101.276H108.829C110.439 101.276 111.415 100.203 111.415 98.6909C111.415 97.1787 110.463 96.1543 108.707 96.1543V96.1543ZM123.707 104.74H120.634V109.398H116.854V92.6909H124.049C127.854 92.6909 130 95.3495 130 98.5934C130 102.008 127.634 104.74 123.707 104.74V104.74ZM123.488 96.1543H120.634V101.276H123.61C125.22 101.276 126.195 100.203 126.195 98.6909C126.195 97.1787 125.244 96.1543 123.488 96.1543V96.1543Z" fill="#4C5D6D"/>
</svg>
